<?xml version="1.0" encoding="utf-8"?>
<!-- Generator: Adobe Illustrator 22.0.0, SVG Export Plug-In . SVG Version: 6.00 Build 0)  -->
<svg version="1.1" id="Layer_1" xmlns="http://www.w3.org/2000/svg" xmlns:xlink="http://www.w3.org/1999/xlink" x="0px" y="0px"
	 viewBox="0 0 58.1 58.1" style="enable-background:new 0 0 58.1 58.1;" xml:space="preserve">
<style type="text/css">
	.st0{opacity:0.7;fill:url(#SVGID_1_);}
	.st1{fill:#FFFFFF;}
</style>
<g>
	<linearGradient id="SVGID_1_" gradientUnits="userSpaceOnUse" x1="0.4296" y1="29" x2="57.5704" y2="29">
		<stop  offset="0" style="stop-color:#1FAB89"/>
		<stop  offset="0.985" style="stop-color:#9DF3C4"/>
	</linearGradient>
	<circle class="st0" cx="29" cy="29" r="28.6"/>
	<g>
		<path class="st1" d="M39.4,38.8c0.8,3.7-3.2,4.5-5,4c-1.8-0.5-5.4-0.6-5.4-0.6s-3.6,0.1-5.4,0.6c-1.8,0.5-5.8-0.3-5-4
			c0.8-3.7,4.4-3.6,5.3-8.6c1-5,5.1-4.7,5.1-4.7s4.1-0.3,5.1,4.7C35.1,35.2,38.6,35.1,39.4,38.8z M32.7,25.2
			c2.2,0.6,4.6-1.1,5.4-3.9c0.8-2.8-0.3-5.5-2.5-6.1c-2.2-0.6-4.6,1.1-5.4,3.9C29.4,21.8,30.6,24.6,32.7,25.2z M41.8,24.2
			c-2.1-0.9-4.7,0.6-5.8,3.3c-1.1,2.7-0.3,5.5,1.8,6.4c2.1,0.9,4.7-0.6,5.8-3.3S43.9,25,41.8,24.2z M25.3,25.2
			c2.2-0.6,3.3-3.4,2.5-6.1c-0.8-2.8-3.2-4.5-5.4-3.9c-2.2,0.6-3.3,3.4-2.5,6.1C20.6,24.1,23.1,25.8,25.3,25.2z M20.1,33.8
			c2.1-0.9,2.9-3.7,1.8-6.4s-3.7-4.1-5.8-3.3c-2.1,0.9-2.9,3.7-1.8,6.4C15.4,33.2,18,34.7,20.1,33.8z"/>
	</g>
</g>
</svg>
