<?xml version="1.0" encoding="utf-8"?>
<!-- Generator: Adobe Illustrator 22.0.0, SVG Export Plug-In . SVG Version: 6.00 Build 0)  -->
<svg version="1.1" id="Layer_1" xmlns="http://www.w3.org/2000/svg" xmlns:xlink="http://www.w3.org/1999/xlink" x="0px" y="0px"
	 viewBox="0 0 58.1 58.1" style="enable-background:new 0 0 58.1 58.1;" xml:space="preserve">
<style type="text/css">
	.st0{opacity:0.7;fill:url(#SVGID_1_);enable-background:new    ;}
	.st1{fill:#FFFFFF;}
</style>
<g>
	
		<linearGradient id="SVGID_1_" gradientUnits="userSpaceOnUse" x1="0.45" y1="29.05" x2="57.5908" y2="29.05" gradientTransform="matrix(1 0 0 1 0 -3.814697e-05)">
		<stop  offset="0" style="stop-color:#1FAB89"/>
		<stop  offset="0.985" style="stop-color:#9DF3C4"/>
	</linearGradient>
	<circle class="st0" cx="29" cy="29" r="28.6"/>
	<g>
		<g>
			<path class="st1" d="M32.4,36.7c0,0,0.3-0.2,0.6,0.1c1.6,1.6,6.3,6.3,6.3,6.3c1.3,1.3,3,1.6,4.1,0.4l0.2-0.2
				c1.1-1.1,0.8-2.9-0.4-4.1c0,0-4.7-4.7-6.3-6.3c-0.3-0.3-0.1-0.6-0.1-0.6c2.8-4.7,2.2-10.8-1.9-14.9c-4.8-4.8-12.7-4.8-17.5,0
				s-4.8,12.7,0,17.5C21.5,39,27.6,39.6,32.4,36.7z M19.7,32.6c-3.6-3.6-3.6-9.4,0-12.9c3.6-3.6,9.4-3.6,12.9,0
				c3.6,3.6,3.6,9.4,0,12.9C29.1,36.1,23.3,36.1,19.7,32.6z"/>
			<g>
				<path class="st1" d="M25.5,28.6c-0.5,0-1-0.4-1-1l-0.8-7c0-0.5,0.4-1,1-1h2.8c0.5,0,1,0.4,1,1l-0.8,7c0,0.5-0.4,1-1,1H25.5z"/>
				<path class="st1" d="M24.8,30.6c0-0.4,0.4-0.8,0.8-0.8h1.2c0.4,0,0.8,0.4,0.8,0.8v1.2c0,0.4-0.4,0.8-0.8,0.8h-1.2
					c-0.4,0-0.8-0.4-0.8-0.8V30.6z"/>
			</g>
		</g>
	</g>
</g>
</svg>
