<?xml version="1.0" encoding="utf-8"?>
<!-- Generator: Adobe Illustrator 22.0.0, SVG Export Plug-In . SVG Version: 6.00 Build 0)  -->
<svg version="1.1" id="Layer_1" xmlns="http://www.w3.org/2000/svg" xmlns:xlink="http://www.w3.org/1999/xlink" x="0px" y="0px"
	 viewBox="0 0 58.1 58.1" style="enable-background:new 0 0 58.1 58.1;" xml:space="preserve">
<style type="text/css">
	.st0{opacity:0.7;fill:url(#SVGID_1_);}
	.st1{fill:#FFFFFF;}
</style>
<g>
	<linearGradient id="SVGID_1_" gradientUnits="userSpaceOnUse" x1="0.4296" y1="29" x2="57.5704" y2="29">
		<stop  offset="0" style="stop-color:#1FAB89"/>
		<stop  offset="0.985" style="stop-color:#9DF3C4"/>
	</linearGradient>
	<circle class="st0" cx="29" cy="29" r="28.6"/>
	<g transform="translate(-1)">
		<g>
			<g>
				<path class="st1" d="M48,18.5L48,18.5c-0.9-0.9-2.3-1-3.2-0.1l-3.4,3.4c-0.2,0.2-0.5,0.2-0.6,0l-4.7-4.3
					c-0.5-0.4-1.1-0.7-1.7-0.7h-7c-0.2,0-0.3,0.1-0.4,0.2L21,22.6c-0.9,0.9-0.9,2.3-0.1,3.1c0.4,0.5,1,0.7,1.6,0.7h0
					c0.6,0,1.2-0.3,1.6-0.7l4.2-4.4h1.5l-9.8,10.9h-6c-1.4,0-2.6,1.1-2.7,2.4c0,0.7,0.2,1.4,0.7,1.9c0.5,0.5,1.2,0.8,1.9,0.8h9
					c0.2,0,0.3-0.1,0.5-0.2l4.6-4.9l3.9,4.1l-1.2,7.5c-0.3,1.2,0.3,2.5,1.4,3c0.3,0.2,0.7,0.2,1.1,0.2c0.4,0,0.8-0.1,1.1-0.3
					c0.7-0.3,1.2-1,1.4-1.7l2-10.7c0-0.2,0-0.4-0.2-0.6l-5.3-5.3l4.2-4.2l3,3c0.8,0.8,2.3,0.8,3.1,0l5.6-5.6c0.4-0.4,0.6-1,0.6-1.5
					C48.7,19.4,48.4,18.9,48,18.5z"/>
				<path class="st1" d="M40.9,18.7c2.1,0,3.9-1.7,3.9-3.9S43.1,11,40.9,11c-2.1,0-3.9,1.7-3.9,3.9C37.1,17,38.8,18.7,40.9,18.7z"/>
			</g>
		</g>
	</g>
</g>
</svg>
