<?xml version="1.0" encoding="utf-8"?>
<!-- Generator: Adobe Illustrator 22.0.0, SVG Export Plug-In . SVG Version: 6.00 Build 0)  -->
<svg version="1.1" id="Layer_1" xmlns="http://www.w3.org/2000/svg" xmlns:xlink="http://www.w3.org/1999/xlink" x="0px" y="0px"
	 viewBox="0 0 58.1 58.1" style="enable-background:new 0 0 58.1 58.1;" xml:space="preserve">
<style type="text/css">
	.st0{opacity:0.7;fill:url(#SVGID_1_);}
	.st1{fill:#FFFFFF;}
</style>
<g>
	<linearGradient id="SVGID_1_" gradientUnits="userSpaceOnUse" x1="0.4847" y1="29.0551" x2="57.6255" y2="29.0551">
		<stop  offset="0" style="stop-color:#1FAB89"/>
		<stop  offset="0.985" style="stop-color:#9DF3C4"/>
	</linearGradient>
	<circle class="st0" cx="29.1" cy="29.1" r="28.6"/>
	<g>
		<g>
			<path class="st1" d="M28.8,13c-0.1,0.1-1.3,1.6-1.3,3.5l0,0c0,1.9,1.3,3.4,1.4,3.5c0,0.1,0.1,0.1,0.2,0.1s0.1,0,0.2-0.1
				c0.1-0.1,1.3-1.6,1.3-3.5l0,0c0-1.9-1.3-3.4-1.4-3.5c0-0.1-0.1-0.1-0.2-0.1C29,12.9,28.9,13,28.8,13z"/>
			<g>
				<path class="st1" d="M16.9,23c0,0.1,1.2,1.7,3,2.2l0,0c1.9,0.5,3.7-0.4,3.7-0.4c0.1,0,0.1-0.1,0.1-0.2s0-0.1,0-0.2
					c0-0.1-1.2-1.7-3-2.2l0,0c-1.9-0.5-3.7,0.4-3.7,0.4c-0.1,0-0.1,0.1-0.1,0.2C16.8,22.8,16.8,22.9,16.9,23z"/>
				<path class="st1" d="M41.2,23c0,0.1-1.2,1.7-3,2.2l0,0c-1.9,0.5-3.7-0.4-3.7-0.4c-0.1,0-0.1-0.1-0.1-0.2c0-0.1,0-0.1,0-0.2
					c0-0.1,1.2-1.7,3-2.2l0,0c1.9-0.5,3.7,0.4,3.7,0.4c0.1,0,0.1,0.1,0.1,0.2C41.3,22.8,41.3,22.9,41.2,23z"/>
			</g>
			<g>
				<path class="st1" d="M37.6,16.2c-0.1,0-2.8,0.2-4.6,2.1l0,0c-1.8,1.9-2,4.6-2,4.7c0,0.1,0,0.2,0.1,0.3s0.2,0.1,0.3,0.1
					c0.1,0,2.8-0.2,4.6-2.1l0,0c1.8-1.9,2-4.6,2-4.7c0-0.1,0-0.2-0.1-0.3C37.8,16.2,37.7,16.2,37.6,16.2z"/>
				<path class="st1" d="M20.5,16.2c0.1,0,2.8,0.2,4.6,2.1l0,0c1.8,1.9,2,4.6,2,4.7c0,0.1,0,0.2-0.1,0.3s-0.2,0.1-0.3,0.1
					c-0.1,0-2.8-0.2-4.6-2.1l0,0c-1.8-1.9-2-4.6-2-4.7c0-0.1,0-0.2,0.1-0.3C20.3,16.2,20.4,16.2,20.5,16.2z"/>
			</g>
			<g>
				<g>
					<path class="st1" d="M19.1,33.4c0-0.1,0.2-2.8,2.1-4.6l0,0c1.9-1.8,4.6-2,4.7-2c0.1,0,0.2,0,0.3,0.1c0.1,0.1,0.1,0.2,0.1,0.3
						c0,0.1-0.2,2.8-2.1,4.6l0,0c-1.9,1.8-4.6,2-4.7,2c-0.1,0-0.2,0-0.3-0.1C19.1,33.5,19.1,33.4,19.1,33.4z"/>
				</g>
				<g>
					<path class="st1" d="M39,33.4c0-0.1-0.2-2.8-2.1-4.6l0,0c-1.9-1.8-4.6-2-4.7-2c-0.1,0-0.2,0-0.3,0.1c-0.1,0.1-0.1,0.2-0.1,0.3
						c0,0.1,0.2,2.8,2.1,4.6l0,0c1.9,1.8,4.6,2,4.7,2c0.1,0,0.2,0,0.3-0.1C39,33.5,39,33.4,39,33.4z"/>
				</g>
			</g>
		</g>
		<path class="st1" d="M31.5,41.9C31.5,41.9,31.4,41.9,31.5,41.9L30.3,32c-0.2-1.4-0.1-2.7,0.4-4c0.3-0.9,0.7-1.7,1.2-2.4
			c0.3-0.3,0.5-0.6,0.9-0.9c0.1-0.1,0.5-0.3,0.5-0.4c0,0-0.9,0.4-1,0.4c-0.4,0.2-0.9,0.5-1.2,0.9c-0.5,0.5-0.9,0.9-1.3,1.5L29,20.7
			l-0.7,6.4c-0.4-0.6-0.9-1.1-1.5-1.6c-0.4-0.3-0.8-0.6-1.3-0.8c-0.1,0-0.8-0.3-0.8-0.3c0,0.1,0.6,0.4,0.7,0.5
			c0.3,0.3,0.6,0.6,0.8,0.9c0.5,0.7,0.9,1.4,1.1,2.2c0.4,1.2,0.5,2.4,0.4,3.7l-1,9.2c-0.9-0.1-1.8-0.1-2.4,0c-1.3,0.2-3,1-3.4,2.5
			c2.2-1.9,5.6-0.6,8.1,0.1c1.5,0.4,3,0.6,4.5,0.3c1.3-0.3,3-1,3.4-2.5C35.5,42.5,33.8,42.4,31.5,41.9z"/>
	</g>
</g>
</svg>
