<?xml version="1.0" encoding="utf-8"?>
<!-- Generator: Adobe Illustrator 22.0.0, SVG Export Plug-In . SVG Version: 6.00 Build 0)  -->
<svg version="1.1" id="Layer_1" xmlns="http://www.w3.org/2000/svg" xmlns:xlink="http://www.w3.org/1999/xlink" x="0px" y="0px"
	 viewBox="0 0 58.1 58.1" style="enable-background:new 0 0 58.1 58.1;" xml:space="preserve">
<style type="text/css">
	.st0{opacity:0.7;fill:url(#SVGID_1_);}
	.st1{fill:#FFFFFF;}
</style>
<g>
	<linearGradient id="SVGID_1_" gradientUnits="userSpaceOnUse" x1="0.4296" y1="29" x2="57.5704" y2="29">
		<stop  offset="0" style="stop-color:#1FAB89"/>
		<stop  offset="0.985" style="stop-color:#9DF3C4"/>
	</linearGradient>
	<circle class="st0" cx="29" cy="29" r="28.6"/>
	<g id="Delete__x2F__Trash_3_">
		<path class="st1" d="M19.7,44.1c0,0,0.5,2.4,3.2,2.4h12.1c2.7,0,3.2-2.4,3.2-2.4l2.4-23.3H17.3L19.7,44.1z M33.7,24.3
			c0-0.6,0.5-1.2,1.2-1.2s1.2,0.5,1.2,1.2l-1.2,17.5c0,0.6-0.5,1.2-1.2,1.2c-0.6,0-1.2-0.5-1.2-1.2L33.7,24.3z M27.8,24.3
			c0-0.6,0.5-1.2,1.2-1.2c0.6,0,1.2,0.5,1.2,1.2v17.5c0,0.6-0.5,1.2-1.2,1.2c-0.6,0-1.2-0.5-1.2-1.2L27.8,24.3z M23.2,23.2
			c0.6,0,1.2,0.5,1.2,1.2l1.2,17.5c0,0.6-0.5,1.2-1.2,1.2c-0.6,0-1.2-0.5-1.2-1.2L22,24.3C22,23.7,22.5,23.2,23.2,23.2z M40,16.2
			h-5.1v-2.3c0-1.8-0.6-2.3-2.3-2.3h-7c-1.6,0-2.3,0.8-2.3,2.3v2.3H18c-1,0-1.9,0.8-1.9,1.8c0,1,0.8,1.8,1.9,1.8h22
			c1,0,1.9-0.8,1.9-1.8C41.8,16.9,41,16.2,40,16.2z M32.5,16.2h-7l0-2.3h7L32.5,16.2L32.5,16.2z"/>
	</g>
</g>
</svg>
