<?xml version="1.0" encoding="utf-8"?>
<!-- Generator: Adobe Illustrator 22.0.0, SVG Export Plug-In . SVG Version: 6.00 Build 0)  -->
<svg version="1.1" id="Capa_1" xmlns="http://www.w3.org/2000/svg" xmlns:xlink="http://www.w3.org/1999/xlink" x="0px" y="0px"
	 viewBox="0 0 58 58" style="enable-background:new 0 0 58 58;" xml:space="preserve">
<style type="text/css">
	.st0{opacity:0.7;fill:url(#SVGID_1_);}
	.st1{fill:#FFFFFF;}
</style>
<g>
	<g>
		<linearGradient id="SVGID_1_" gradientUnits="userSpaceOnUse" x1="0.4302" y1="29" x2="57.5698" y2="29">
			<stop  offset="0" style="stop-color:#1FAB89"/>
			<stop  offset="0.985" style="stop-color:#9DF3C4"/>
		</linearGradient>
		<circle class="st0" cx="29" cy="29" r="28.6"/>
	</g>
	<g id="XMLID_129_">
		<path id="XMLID_134_" class="st1" d="M44.3,13H26.9c-0.6,0-1,0.5-1,1v7.4l0.8-0.9c0.4-0.4,0.8-0.7,1.3-0.8v-4.7h15.3v13.7H28v-2.3
			L27.5,27c-0.4,0.5-1,0.8-1.6,0.8v1.9c0,0.6,0.5,1,1,1h5.7l-2.9,13c-0.1,0.6,0.2,1.2,0.8,1.3c0.6,0.1,1.2-0.2,1.3-0.8l3-13.5h1.7
			l3,13.5c0.1,0.5,0.6,0.9,1.1,0.8c0.1,0,0.2,0,0.2,0c0.6-0.1,1-0.7,0.8-1.3l-2.9-13h5.6c0.6,0,1-0.5,1-1V14.1
			C45.4,13.5,44.9,13,44.3,13z"/>
		<path id="XMLID_132_" class="st1" d="M36,19.1c-0.1-0.2-0.3-0.3-0.5-0.2l-6.2,2.2c-0.6-0.4-1.4-0.4-1.9,0.2l-2,2.3l-1.7-1.5
			c0,0.1,0,0.2,0,0.4v3.2l1,0.8c0.6,0.5,1.4,0.4,1.9-0.1l2.3-2.7l1.9-1.1l4.9-2.9C36,19.5,36.1,19.3,36,19.1z"/>
		<path id="XMLID_131_" class="st1" d="M20,19.7h-1.2c-0.9,0-1.7,0.4-2.2,1.1l-3.6,3.3c-0.6,0.5-0.6,1.4-0.1,1.9l2.9,3.2
			c0.5,0.6,1.4,0.6,1.9,0.1c0.6-0.5,0.6-1.4,0.1-1.9l-2-2.2l2.9-2.6l-1.7,2.3l1.6,1.8c0.9,1,0.8,2.5-0.2,3.4
			c-0.7,0.6-1.6,0.8-2.4,0.5c0,0,0,6.3,0,13c0,0.9,0.7,1.6,1.6,1.6c0.9,0,1.6-0.7,1.6-1.6c0-6.7,0-2.9,0-9.7h1.1c0,6.8,0,3,0,9.7
			c0,0.5-0.1,0.9-0.3,1.3c0.3,0.2,0.6,0.3,1,0.3c0.9,0,1.6-0.7,1.6-1.6c0-6.7,0-3.9,0-21.2C22.7,20.9,21.5,19.7,20,19.7z"/>
		<path id="XMLID_130_" class="st1" d="M18,18.7c0.4,0.2,0.9,0.4,1.4,0.4c0.5,0,1-0.1,1.4-0.4c1-0.5,1.7-1.6,1.7-2.8
			c0-1.7-1.4-3.2-3.2-3.2c-1.7,0-3.2,1.4-3.2,3.2C16.2,17.2,16.9,18.2,18,18.7z"/>
	</g>
</g>
</svg>
