<svg id="Layer_1" data-name="Layer 1" xmlns="http://www.w3.org/2000/svg" xmlns:xlink="http://www.w3.org/1999/xlink" viewBox="0 0 58.1 58.1"><defs><style>.cls-1{opacity:0.7;isolation:isolate;fill:url(#linear-gradient);}.cls-2{fill:#fff;}</style><linearGradient id="linear-gradient" x1="0.4" y1="29.11" x2="57.54" y2="29.11" gradientTransform="matrix(1, 0, 0, -1, 0, 58.11)" gradientUnits="userSpaceOnUse"><stop offset="0" stop-color="#1fab89"/><stop offset="0.98" stop-color="#9df3c4"/></linearGradient></defs><title>access</title><circle class="cls-1" cx="29" cy="29" r="28.6"/><path class="cls-2" d="M40.87,36.17l-3.78-6.91a1.84,1.84,0,0,0-1.26-.94,2.19,2.19,0,0,0-.63-.1H29.46l-.12-1.76H34A1.24,1.24,0,0,0,34,24h-4.8l-.13-2.18a2.25,2.25,0,0,0-2.25-2.1h-.15l-.47,0a2.25,2.25,0,0,0-2.1,2.4L24.6,30a2.25,2.25,0,0,0,2.25,2.11H35l3,5.57a1.81,1.81,0,0,0,1.55,1,1.54,1.54,0,0,0,.72-.18A1.71,1.71,0,0,0,40.87,36.17Z"/><path class="cls-2" d="M26.45,19.09a2.62,2.62,0,1,0-2.62-2.61A2.62,2.62,0,0,0,26.45,19.09Z"/><path class="cls-2" d="M36.15,37.59a.73.73,0,0,0-1.1.25,8.56,8.56,0,0,1-3.79,3.9,8.36,8.36,0,0,1-6.66.66,8.8,8.8,0,0,1-6.12-9,8.93,8.93,0,0,1,3.81-6.55c.55-.51.53-.85.28-1.14a.74.74,0,0,0-1-.14c-.36.23-.59.41-.59.41a10.2,10.2,0,1,0,15.18,13C36.37,38.41,36.63,38,36.15,37.59Z"/></svg>