<svg id="Layer_1" data-name="Layer 1" xmlns="http://www.w3.org/2000/svg" xmlns:xlink="http://www.w3.org/1999/xlink" viewBox="0 0 58.1 58.1"><defs><style>.cls-1{opacity:0.7;isolation:isolate;fill:url(#linear-gradient);}.cls-2{fill:#fff;}</style><linearGradient id="linear-gradient" x1="0.44" y1="29.11" x2="57.58" y2="29.11" gradientTransform="matrix(1, 0, 0, -1, 0, 58.11)" gradientUnits="userSpaceOnUse"><stop offset="0" stop-color="#1fab89"/><stop offset="0.98" stop-color="#9df3c4"/></linearGradient></defs><title>alcance2</title><circle class="cls-1" cx="29.04" cy="29" r="28.6"/><path class="cls-2" d="M42.24,18.12a2,2,0,1,0,2,2A2,2,0,0,0,42.24,18.12Zm0,3.05a1,1,0,1,1,1-1A1,1,0,0,1,42.24,21.17Z"/><path class="cls-2" d="M15.83,34.88a2,2,0,1,0,2,2A2,2,0,0,0,15.83,34.88Zm0,3a1,1,0,1,1,1-1A1,1,0,0,1,15.83,37.93Z"/><path class="cls-2" d="M41.26,18.76l-4.38-2.11a.51.51,0,0,0-.45.91l4.39,2.12a.54.54,0,0,0,.22.05.49.49,0,0,0,.45-.29A.51.51,0,0,0,41.26,18.76Z"/><path class="cls-2" d="M36.66,38.44a2,2,0,1,0,2,2A2,2,0,0,0,36.66,38.44Zm0,3a1,1,0,1,1,1-1A1,1,0,0,1,36.66,41.48Z"/><path class="cls-2" d="M35.67,39.08,31.29,37a.51.51,0,1,0-.44.92L35.23,40a.44.44,0,0,0,.22,0,.5.5,0,0,0,.22-1Z"/><path class="cls-2" d="M29,25.74a2,2,0,1,0,2,2A2,2,0,0,0,29,25.74Zm0,3.05a1,1,0,1,1,0-2,1,1,0,0,1,0,2Z"/><path class="cls-2" d="M28.14,26.44l-3.36-2.62a.5.5,0,0,0-.71.08.51.51,0,0,0,.08.72l3.37,2.62a.5.5,0,0,0,.71-.09A.49.49,0,0,0,28.14,26.44Z"/><path class="cls-2" d="M38.18,25.23a5.59,5.59,0,1,0,5.59,5.59A5.6,5.6,0,0,0,38.18,25.23Zm0,10.16a4.57,4.57,0,1,1,4.57-4.57A4.58,4.58,0,0,1,38.18,35.39Z"/><path class="cls-2" d="M38.18,27.26a2,2,0,1,0,2,2A2,2,0,0,0,38.18,27.26Zm0,3a1,1,0,1,1,0-2,1,1,0,0,1,0,2Z"/><path class="cls-2" d="M39.65,32.34H36.71a1.56,1.56,0,0,0-1.58,1.53v1.34a.51.51,0,0,0,.26.44,5.56,5.56,0,0,0,5.58,0,.51.51,0,0,0,.26-.44V33.87A1.56,1.56,0,0,0,39.65,32.34Zm.56,2.57a4.6,4.6,0,0,1-4.06,0v-1a.54.54,0,0,1,.56-.51h2.94a.54.54,0,0,1,.56.51v1Z"/><path class="cls-2" d="M26,31.33a5.59,5.59,0,1,0,5.59,5.58A5.59,5.59,0,0,0,26,31.33Zm0,10.15a4.57,4.57,0,1,1,4.57-4.57A4.58,4.58,0,0,1,26,41.48Z"/><path class="cls-2" d="M26,33.36a2,2,0,1,0,2,2A2,2,0,0,0,26,33.36Zm0,3a1,1,0,1,1,1-1A1,1,0,0,1,26,36.4Z"/><path class="cls-2" d="M27.46,38.44H24.52A1.55,1.55,0,0,0,22.94,40v1.34a.52.52,0,0,0,.26.44,5.56,5.56,0,0,0,5.58,0,.51.51,0,0,0,.26-.44V40A1.55,1.55,0,0,0,27.46,38.44ZM28,41A4.6,4.6,0,0,1,24,41V40a.54.54,0,0,1,.56-.52h2.94A.54.54,0,0,1,28,40v1Z"/><path class="cls-2" d="M19.39,18.63A5.59,5.59,0,1,0,25,24.22,5.6,5.6,0,0,0,19.39,18.63Zm0,10.16A4.57,4.57,0,1,1,24,24.22,4.58,4.58,0,0,1,19.39,28.79Z"/><path class="cls-2" d="M19.39,20.66a2,2,0,1,0,2,2A2,2,0,0,0,19.39,20.66Zm0,3.05a1,1,0,1,1,0-2,1,1,0,0,1,0,2Z"/><path class="cls-2" d="M20.86,25.74H17.91a1.56,1.56,0,0,0-1.57,1.53v1.34a.52.52,0,0,0,.25.44,5.58,5.58,0,0,0,5.59,0,.51.51,0,0,0,.26-.44V27.27A1.56,1.56,0,0,0,20.86,25.74Zm.56,2.57a4.6,4.6,0,0,1-4.06,0v-1a.53.53,0,0,1,.55-.51h2.95a.54.54,0,0,1,.56.51v1Z"/><path class="cls-2" d="M31.58,12a5.59,5.59,0,1,0,5.58,5.58A5.59,5.59,0,0,0,31.58,12Zm0,10.15a4.57,4.57,0,1,1,4.57-4.57A4.58,4.58,0,0,1,31.58,22.18Z"/><path class="cls-2" d="M31.58,14.06a2,2,0,1,0,2,2A2,2,0,0,0,31.58,14.06Zm0,3a1,1,0,1,1,1-1A1,1,0,0,1,31.58,17.11Z"/><path class="cls-2" d="M33.05,19.14H30.1a1.55,1.55,0,0,0-1.57,1.53V22a.52.52,0,0,0,.25.44,5.58,5.58,0,0,0,5.59,0,.5.5,0,0,0,.25-.44V20.67A1.55,1.55,0,0,0,33.05,19.14Zm.56,2.56a4.6,4.6,0,0,1-4.06,0v-1a.54.54,0,0,1,.55-.52h2.95a.54.54,0,0,1,.56.52v1Z"/><path class="cls-2" d="M26.88,17.28a.51.51,0,0,0-.71-.05l-3.52,3a.52.52,0,0,0-.06.72.54.54,0,0,0,.39.17.52.52,0,0,0,.33-.12l3.52-3A.51.51,0,0,0,26.88,17.28Z"/><path class="cls-2" d="M38.08,25.44l-3-4.07a.51.51,0,0,0-.71-.1.5.5,0,0,0-.1.71l3,4.06a.51.51,0,0,0,.41.21.6.6,0,0,0,.31-.1A.51.51,0,0,0,38.08,25.44Z"/><path class="cls-2" d="M33.91,32.5a.5.5,0,0,0-.71-.1l-2.84,2.12a.51.51,0,0,0-.1.71.49.49,0,0,0,.41.21.57.57,0,0,0,.3-.1l2.84-2.13A.51.51,0,0,0,33.91,32.5Z"/><path class="cls-2" d="M20.91,36.4H17.36a.51.51,0,0,0,0,1h3.55a.51.51,0,0,0,0-1Z"/><path class="cls-2" d="M19.39,12a2,2,0,1,0,2,2A2,2,0,0,0,19.39,12Zm0,3a1,1,0,1,1,1-1A1,1,0,0,1,19.39,15.07Z"/><path class="cls-2" d="M19.39,15.07a.51.51,0,0,0-.51.51v3.56a.51.51,0,0,0,1,0V15.58A.51.51,0,0,0,19.39,15.07Z"/></svg>