<svg id="Layer_1" data-name="Layer 1" xmlns="http://www.w3.org/2000/svg" xmlns:xlink="http://www.w3.org/1999/xlink" viewBox="0 0 58.1 58.1"><defs><style>.cls-1{opacity:0.7;isolation:isolate;fill:url(#linear-gradient);}.cls-2{fill:#fff;}</style><linearGradient id="linear-gradient" x1="0.42" y1="29.11" x2="57.57" y2="29.11" gradientTransform="matrix(1, 0, 0, -1, 0, 58.11)" gradientUnits="userSpaceOnUse"><stop offset="0" stop-color="#1fab89"/><stop offset="0.98" stop-color="#9df3c4"/></linearGradient></defs><title>participantes</title><circle class="cls-1" cx="29.02" cy="29" r="28.6"/><path class="cls-2" d="M33.19,20.55a5.55,5.55,0,0,1,2.59,4.13,4.4,4.4,0,0,0,1.89.42,4.49,4.49,0,1,0-4.48-4.55Zm-3.94,9.18a4.49,4.49,0,1,0-4.49-4.48A4.49,4.49,0,0,0,29.25,29.73Zm1.9.31h-3.8a5.76,5.76,0,0,0-5.75,5.74v4.73l.33.1a25.92,25.92,0,0,0,7.81,1.26,15.91,15.91,0,0,0,6.81-1.28l.3-.15h0V35.78A5.76,5.76,0,0,0,31.15,30Zm8.43-4.63H35.8a5.53,5.53,0,0,1-1.71,3.85A6.83,6.83,0,0,1,39,35.79v1.43A15.37,15.37,0,0,0,45,36l.3-.15h0V31.15A5.75,5.75,0,0,0,39.58,25.41Zm-19.2-.31a4.39,4.39,0,0,0,2.38-.69,5.55,5.55,0,0,1,2.09-3.54,2.18,2.18,0,0,0,0-.25,4.49,4.49,0,1,0-4.48,4.48Zm4,4.16a5.55,5.55,0,0,1-1.71-3.83l-.42,0H18.47a5.75,5.75,0,0,0-5.74,5.74v4.73l.32.1a26.87,26.87,0,0,0,6.47,1.22V35.79A6.83,6.83,0,0,1,24.41,29.26Z"/></svg>